# xmcd
#
# Track frame offsets:
#	150
#	14957
#	27632
#	44467
#	57175
#	69227
#	82885
#	93217
#	106730
#	117750
#	133250
#	143742
#
# Disc length: 2080 seconds
#
# Revision: 0
# Processed by: cddbd v1.4PL0 Copyright (c) Steve Scherf et al.
# Submitted via: EasyCDDAExtractor 4.6.0.1
#
DISCID=a0081e0c
DTITLE=Soledad - La Sole
DYEAR=1997
DGENRE=Blues
TTITLE0=Que Nadie Sepa Mi Sufrir
TTITLE1=Las Moras
TTITLE2=Del Norte Cordobes
TTITLE3=Enero
TTITLE4=Si de cantar se trata
TTITLE5=Chilenito de pucon
TTITLE6=Kilometro 11
TTITLE7=La Carta Perdida
TTITLE8=Si De Cantar Se Trata
TTITLE9=Mano A Mano
TTITLE10=Punta Cayasta
TTITLE11=Achalay Tafi Del Valle
EXTD=Encoded by @riel
EXTT0=
EXTT1=
EXTT2=
EXTT3=
EXTT4=
EXTT5=
EXTT6=
EXTT7=
EXTT8=
EXTT9=
EXTT10=
EXTT11=
PLAYORDER=
